<?xml version="1.0" standalone="no"?><!DOCTYPE svg PUBLIC "-//W3C//DTD SVG 1.1//EN" "http://www.w3.org/Graphics/SVG/1.1/DTD/svg11.dtd"><svg t="1615708791906" class="icon" viewBox="0 0 1024 1024" version="1.1" xmlns="http://www.w3.org/2000/svg" p-id="2181" xmlns:xlink="http://www.w3.org/1999/xlink" width="32" height="32"><defs><style type="text/css"></style></defs><path d="M493.1 507.2H170.7V184.9h322.4v322.3z m-272.4-50h222.4V234.9H220.7v222.3zM855.3 507.2H532.9V184.9h322.4v322.3z m-272.4-50h222.4V234.9H582.9v222.3zM493.1 870.4H170.7V548h322.4v322.4z m-272.4-50h222.4V598H220.7v222.4zM694.1 870.4c-88.9 0-161.2-72.3-161.2-161.2S605.2 548 694.1 548h161.2v161.2c0 88.9-72.3 161.2-161.2 161.2z m0-272.4c-61.3 0-111.2 49.9-111.2 111.2s49.9 111.2 111.2 111.2 111.2-49.9 111.2-111.2V598H694.1z" fill="#1296db" p-id="2182"></path></svg>