<?xml version="1.0" standalone="no"?><!DOCTYPE svg PUBLIC "-//W3C//DTD SVG 1.1//EN" "http://www.w3.org/Graphics/SVG/1.1/DTD/svg11.dtd"><svg t="1617259996301" class="icon" viewBox="0 0 1024 1024" version="1.1" xmlns="http://www.w3.org/2000/svg" p-id="4481" xmlns:xlink="http://www.w3.org/1999/xlink" width="30" height="30"><defs><style type="text/css"></style></defs><path d="M750.33 487.1c-31.65 0-60.28-14.54-79.46-37.28-19.18 22.73-47.81 37.28-79.43 37.28-31.62 0-60.25-14.54-79.43-37.28-19.18 22.73-47.81 37.28-79.43 37.28-31.65 0-60.28-14.54-79.46-37.28-19.16 22.73-47.79 37.28-79.43 37.28-55.03 0-100.98-43.99-103.86-98.74-0.24-1.47-0.34-2.97-0.29-4.47-0.02-0.36-0.02-0.68-0.02-0.97 0-15.97 3.84-31.65 11.4-46.65l53.78-140.92a24.745 24.745 0 0 1 23.12-15.92h508.4c10.27 0 19.45 6.33 23.12 15.92l53.75 140.89c7.59 15 11.43 30.68 11.43 46.67 0 0.24 0 0.51-0.02 0.8 0.07 1.69-0.05 3.36-0.31 5-3.07 54.59-48.95 98.39-103.86 98.39zM670.7 359.93c13.46 0 24.81 10.75 25.1 24.21 0.65 29.98 24.59 53.49 54.53 53.49 29.91 0 53.85-23.51 54.5-53.49 0.02-0.82 0.07-1.59 0.17-2.37v-0.07c-0.19-8-2.37-16.04-6.47-23.87-0.46-0.87-0.85-1.76-1.21-2.66l-48.15-126.25H274.83l-48.17 126.25c-0.34 0.89-0.75 1.76-1.18 2.61-4.11 7.88-6.28 15.92-6.47 23.92 0.1 0.8 0.14 1.62 0.17 2.44 0.65 29.98 24.59 53.49 54.5 53.49 29.93 0 53.87-23.51 54.53-53.49 0.29-13.46 11.28-24.21 24.74-24.21s24.81 10.75 25.1 24.21c0.63 29.5 25.1 53.49 54.53 53.49 29.91 0 53.85-23.51 54.53-53.51 0.31-13.43 11.28-24.18 24.74-24.18 13.46 0 24.76 10.75 25.08 24.18 0.68 30.01 24.62 53.51 54.53 53.51s53.85-23.51 54.53-53.51c0.28-13.44 11.25-24.19 24.71-24.19zM790.04 844.56H233.96c-13.67 0-24.74-11.06-24.74-24.74V521.94c0-13.67 11.06-24.74 24.74-24.74s24.74 11.06 24.74 24.74v273.14h506.61V521.94c0-13.67 11.06-24.74 24.74-24.74s24.74 11.06 24.74 24.74v297.88c-0.01 13.67-11.07 24.74-24.75 24.74z" p-id="4482" fill="#8a8a8a"></path><path d="M584.36 844.56c-13.67 0-24.74-11.06-24.74-24.74V645.97h-95.23v173.85c0 13.67-11.06 24.74-24.74 24.74-13.67 0-24.74-11.06-24.74-24.74V621.23c0-13.67 11.06-24.74 24.74-24.74h144.71c13.67 0 24.74 11.06 24.74 24.74v198.59c-0.01 13.67-11.07 24.74-24.74 24.74z" p-id="4483" fill="#8a8a8a"></path></svg>