<?xml version="1.0" standalone="no"?><!DOCTYPE svg PUBLIC "-//W3C//DTD SVG 1.1//EN" "http://www.w3.org/Graphics/SVG/1.1/DTD/svg11.dtd"><svg t="1617259874957" class="icon" viewBox="0 0 1024 1024" version="1.1" xmlns="http://www.w3.org/2000/svg" p-id="3311" xmlns:xlink="http://www.w3.org/1999/xlink" width="30" height="30"><defs><style type="text/css"></style></defs><path d="M921.4 403.4c-9.7-29.9-35.1-51.4-66.3-55.9l-182.2-26.7-1-2-80.7-163.1c-14-28.2-42.2-45.7-73.7-45.7s-59.7 17.5-73.7 45.7l-81.7 165-2.2 0.3-180 26.4c-31.2 4.6-56.6 26-66.3 56-9.7 30-1.8 62.2 20.7 84.2L266 616.3l-30.9 181.6c-5.3 31.1 7.2 61.9 32.7 80.4 14.2 10.3 30.9 15.8 48.3 15.8 13.2 0 26.4-3.3 38.3-9.5l163.1-85.5 2 1 161.1 84.4c27.9 14.6 61 12.2 86.5-6.3s38-49.3 32.7-80.3L769 616.4l1.6-1.6 130.1-127.2c22.5-22 30.4-54.2 20.7-84.2zM869 455.3L736.3 585c-10 9.8-14.5 23.8-12.2 37.5l31.2 183c2.4 13.9-3.3 27.8-14.7 36.1-6.4 4.6-13.9 7.1-21.7 7.1-5.9 0-11.9-1.5-17.2-4.3l-164.4-86.2c-6.1-3.2-12.9-4.9-19.7-4.9-6.9 0-13.7 1.7-19.7 4.9l-164.4 86.2c-12.5 6.6-27.4 5.5-38.9-2.8-11.4-8.3-17.1-22.1-14.7-36.1l31.2-183c2.3-13.8-2.2-27.8-12.2-37.5L166 455.3c-10.1-9.9-13.7-24.4-9.3-37.9 4.4-13.5 15.8-23.1 29.8-25.1l183.6-26.9c13.8-2 25.7-10.7 31.9-23.2l82.4-166.3c4.4-8.8 11.9-15.5 21.3-18.6 9.4-3.2 19.4-2.5 28.2 1.9 7.2 3.6 13.1 9.5 16.7 16.7L633 342.2c6.2 12.5 18.1 21.2 31.9 23.2l183.7 26.9c14 2.1 25.4 11.7 29.8 25.2 4.3 13.4 0.8 27.9-9.4 37.8z" p-id="3312" fill="#8a8a8a"></path></svg>