<?xml version="1.0" standalone="no"?><!DOCTYPE svg PUBLIC "-//W3C//DTD SVG 1.1//EN" "http://www.w3.org/Graphics/SVG/1.1/DTD/svg11.dtd"><svg t="1615708862419" class="icon" viewBox="0 0 1024 1024" version="1.1" xmlns="http://www.w3.org/2000/svg" p-id="3070" xmlns:xlink="http://www.w3.org/1999/xlink" width="32" height="32"><defs><style type="text/css"></style></defs><path d="M393.846154 746.501059c-43.35921 0-78.769231 35.410021-78.769231 78.76923s35.410021 78.769231 78.769231 78.769231 78.769231-35.410021 78.769231-78.769231-35.410021-78.769231-78.769231-78.76923z m0 106.230063c-15.175723 0-28.183486-12.285109-28.183486-28.183486 0-15.175723 12.285109-28.183486 28.183486-28.183486s28.183486 12.285109 28.183486 28.183486-13.007763 28.183486-28.183486 28.183486z" fill="#f9a3ca" p-id="3071"></path><path d="M685.798165 746.501059c-43.35921 0-78.769231 35.410021-78.769231 78.76923s35.410021 78.769231 78.769231 78.769231 78.769231-35.410021 78.769231-78.769231-35.410021-78.769231-78.769231-78.76923z m0 106.230063c-15.175723 0-28.183486-12.285109-28.183486-28.183486 0-15.175723 12.285109-28.183486 28.183486-28.183486s28.183486 12.285109 28.183486 28.183486-13.007763 28.183486-28.183486 28.183486z" fill="#f9a3ca" p-id="3072"></path><path d="M789.860268 207.401553h-180.663373c-13.730416 0-25.292872 11.562456-25.292872 25.292872s11.562456 25.292872 25.292872 25.292872h180.663373c17.343684 0 31.0741 13.730416 32.519407 30.351447l-40.468595 237.752999v4.335921c0 18.066337-14.45307 32.519407-32.519407 32.519407h-2.167961L325.194072 605.583627 203.788285 138.026817c-3.613267-13.730416-17.343684-21.679605-31.0741-18.066337s-21.679605 17.343684-18.066337 31.0741l144.530698 555.720536c2.890614 10.839802 13.007763 18.788991 24.570219 18.788991h453.10374c13.730416 0 25.292872-11.562456 25.292873-25.292872s-11.562456-25.292872-25.292873-25.292872h-433.592096l-5.058574-20.234298 412.635145-41.191249c44.081863-0.722653 80.214538-36.132675 81.659844-80.937191l40.468596-238.475653v-4.335921c0-45.52717-37.577982-82.382498-83.105152-82.382498z" fill="#f9a3ca
" p-id="3073"></path><path d="M309.295695 230.526464m-27.460833 0a27.460833 27.460833 0 1 0 54.921666 0 27.460833 27.460833 0 1 0-54.921666 0Z" fill="#f9a3ca" p-id="3074"></path><path d="M405.40861 230.526464m-27.460833 0a27.460833 27.460833 0 1 0 54.921665 0 27.460833 27.460833 0 1 0-54.921665 0Z" fill="#f9a3ca" p-id="3075"></path><path d="M501.521524 230.526464m-27.460832 0a27.460833 27.460833 0 1 0 54.921665 0 27.460833 27.460833 0 1 0-54.921665 0Z" fill="#f9a3ca" p-id="3076"></path></svg>